<svg xmlns="http://www.w3.org/2000/svg" fill="none" width="108" height="30" viewBox="0 0 108 30">
    <path fill="#3D348B" fill-rule="evenodd"
          d="m101.612 30-3.628-14.422c-.438-1.73-.727-3.461-1.016-5.048h-.147c-.289 1.731-.435 3.318-.87 5.192L92.32 30h-6.242L94.353.002h4.936L108 30h-6.388ZM6.387.002l3.63 14.422c.58 1.73.725 3.462 1.015 5.047h.146c.29-1.73.435-3.462.87-5.192L15.679.002h6.242L13.646 30H8.71L0 .002h6.387Zm20.031 0h5.952V30h-5.952V.002Zm39.631 0 3.047 17.74L71.564.002h7.984L82.596 30H76.5L75.048 8.367l-1.016 7.355L71.564 30h-4.645l-2.903-14.422-1.017-6.634v-.577h-.145L61.984 30h-6.389L58.21.002h7.84Zm-18.872 0c-1.016.721-1.74 2.018-2.322 3.316-1.596 3.606.145 6.49 1.596 9.086.146.289.438.721.581 1.154 3.34 5.48 4.5 9.518 2.179 15.286L48.63 30h-7.259c.871-.722 1.741-1.73 2.177-2.885 1.743-3.894-.29-7.499-2.177-11.106-2.176-4.182-4.5-8.508-2.032-14.421.146-.577.727-1.587.727-1.587h7.111v.002Z"
          clip-rule="evenodd"/>
</svg>